<?xml version="1.0" encoding="UTF-8"?>
<svg version="1.1" xmlns="http://www.w3.org/2000/svg" width="121" height="121">
<path d="M0 0 C13.51598863 9.13400384 22.26888865 22.85069886 25.7109375 38.83203125 C27.21781738 58.91614192 24.42369585 74.90065848 11.5859375 91.01953125 C2.55890519 100.69135158 -11.27861132 109.00593406 -24.64819336 110.0090332 C-44.58248244 110.47783359 -61.05899962 108.23008994 -76.3515625 93.95703125 C-90.43467667 78.51103506 -94.12527423 61.98018287 -93.46386719 41.58789062 C-92.6232319 28.33497011 -85.03373068 14.71687577 -75.2890625 5.83203125 C-53.22119936 -11.91820649 -24.42025022 -15.22259692 0 0 Z " fill="#71C86E" transform="translate(94.2890625,10.16796875)"/>
<path d="M0 0 C3.4375 1.8125 3.4375 1.8125 6 4 C6.78375 4.5775 7.5675 5.155 8.375 5.75 C8.91125 6.1625 9.4475 6.575 10 7 C10.66 6.67 11.32 6.34 12 6 C18.21180767 5.42483262 18.21180767 5.42483262 21.3125 7.6875 C23 10 23 10 23.6875 12.4375 C25.53498231 16.04448927 28.20928888 16.87434714 31.73828125 18.67578125 C35.92971765 21.12983469 38.4556091 24.36682729 40 29 C40.77262938 36.61229935 40.04809838 43.39520791 36 50 C32.30960669 54.07651092 28.62259167 57.70829318 22.9140625 58.16796875 C21.78097656 58.17763672 21.78097656 58.17763672 20.625 58.1875 C19.87476563 58.20167969 19.12453125 58.21585938 18.3515625 58.23046875 C15.62292253 57.9630439 13.5177642 57.05459785 11 56 C11.13989034 59.8544062 11.28798006 63.70845629 11.4375 67.5625 C11.47681641 68.64853516 11.51613281 69.73457031 11.55664062 70.85351562 C11.52696328 81.64998051 11.52696328 81.64998051 16 91 C16.33 92.32 16.66 93.64 17 95 C9.41 95 1.82 95 -6 95 C-4 89 -4 89 -2 87 C-1.36989198 84.65912497 -1.36989198 84.65912497 -1 82 C-0.84015625 81.13503906 -0.6803125 80.27007812 -0.515625 79.37890625 C0.08831785 72.97533569 -1.03163238 69.30326474 -4.88769531 64.30639648 C-6.39531092 62.48837546 -7.93497089 60.7057686 -9.49609375 58.93359375 C-12 56 -12 56 -13 53 C-14.2065625 53.1546875 -14.2065625 53.1546875 -15.4375 53.3125 C-22.0648292 52.73115533 -27.18198875 49.274061 -31.5 44.3125 C-35.99697234 38.67879298 -35.63346144 33.0451185 -35 26 C-33.57840524 22.17858439 -31.39771856 20.26514571 -28 18 C-25.3125 17.875 -25.3125 17.875 -23 18 C-22.9175 16.80375 -22.835 15.6075 -22.75 14.375 C-21.98466254 8.52120267 -19.60117061 5.24172414 -14.9375 1.625 C-10.1977607 -0.80615938 -5.18336243 -0.79081511 0 0 Z " fill="#FDFEFD" transform="translate(58,13)"/>
<path d="M0 0 C13.51598863 9.13400384 22.26888865 22.85069886 25.7109375 38.83203125 C27.21781738 58.91614192 24.42369585 74.90065848 11.5859375 91.01953125 C2.55890519 100.69135158 -11.27861132 109.00593406 -24.64819336 110.0090332 C-44.58248244 110.47783359 -61.05899962 108.23008994 -76.3515625 93.95703125 C-90.43467667 78.51103506 -94.12527423 61.98018287 -93.46386719 41.58789062 C-92.6232319 28.33497011 -85.03373068 14.71687577 -75.2890625 5.83203125 C-53.22119936 -11.91820649 -24.42025022 -15.22259692 0 0 Z M-76.2890625 16.0234375 C-85.84669462 27.53791241 -89.53685076 40.98089484 -88.52734375 55.79541016 C-86.76988906 70.81660586 -78.89576319 84.27993285 -67.2890625 93.83203125 C-60.37747535 98.63278233 -53.47029437 101.90529186 -45.2890625 103.83203125 C-44.36867188 104.10273438 -44.36867188 104.10273438 -43.4296875 104.37890625 C-29.95133556 107.23198805 -15.96562833 103.53103298 -4.3515625 96.58203125 C9.28635666 87.07433648 17.75311612 74.27610961 20.7109375 57.83203125 C22.04720406 42.92051126 18.77584279 29.14546571 9.63671875 17.09765625 C1.56286906 7.7979341 -6.67004151 1.94041436 -18.2890625 -2.16796875 C-18.95421875 -2.41546875 -19.619375 -2.66296875 -20.3046875 -2.91796875 C-41.2616035 -9.47839463 -62.37253861 0.77505879 -76.2890625 16.0234375 Z " fill="#559752" transform="translate(94.2890625,10.16796875)"/>
<path d="M0 0 C0 4.62 0 9.24 0 14 C-4.22791457 10.61766834 -6.27012113 8.44869149 -9 4 C-7.68872739 3.3309224 -6.3759455 2.66480194 -5.0625 2 C-4.33160156 1.62875 -3.60070313 1.2575 -2.84765625 0.875 C-1 0 -1 0 0 0 Z " fill="#7BCC78" transform="translate(59,62)"/>
</svg>
